<?xml version="1.0" standalone="no"?><!DOCTYPE svg PUBLIC "-//W3C//DTD SVG 1.1//EN" "http://www.w3.org/Graphics/SVG/1.1/DTD/svg11.dtd"><svg t="1688625328651" class="icon" viewBox="0 0 1024 1024" version="1.1" xmlns="http://www.w3.org/2000/svg" p-id="4207" xmlns:xlink="http://www.w3.org/1999/xlink" width="200" height="200"><path d="M255.8 415.4c-17.7 0-32 14.3-32 32V703c0 17.7 14.3 32 32 32s32-14.3 32-32V447.4c0-17.7-14.3-32-32-32zM513.9 511.1c-17.7 0-32 14.3-32 32V703c0 17.7 14.3 32 32 32s32-14.3 32-32V543.1c0-17.7-14.3-32-32-32z" fill="#323232" p-id="4208"></path><path d="M641 735.1c-17.7 0-32-14.3-32-32v-95.5c0-17.4-14.2-31.6-31.6-31.6-17.4 0-31.6 14.2-31.6 31.6v95.5c0 17.7-14.3 32-32 32s-32-14.3-32-32v-95.5c0-52.7 42.9-95.6 95.6-95.6s95.6 42.9 95.6 95.6v95.5c0 17.7-14.3 32-32 32zM386.8 415.3H255.9c-17.7 0-32 14.3-32 32s14.3 32 32 32h130.8c17.7 0 32-14.3 32-32s-14.3-32-31.9-32zM386.8 671H255.9c-17.7 0-32 14.3-32 32s14.3 32 32 32h130.8c17.7 0 32-14.3 32-32s-14.3-32-31.9-32zM386.8 543.1H255.9c-17.7 0-32 14.3-32 32s14.3 32 32 32h130.8c17.7 0 32-14.3 32-32s-14.3-32-31.9-32z" fill="#323232" p-id="4209"></path><path d="M703.9 257.7c11.4 0 19 5.9 22.5 9.5 3.5 3.5 9.5 11.2 9.5 22.5V864c0 11.4-5.9 19-9.5 22.5-3.5 3.5-11.2 9.5-22.5 9.5H192c-11.4 0-19-5.9-22.5-9.5-3.5-3.5-9.5-11.2-9.5-22.5V289.7c0-11.4 5.9-19 9.5-22.5 3.5-3.5 11.2-9.5 22.5-9.5h511.9m0-64H192c-52.8 0-96 43.2-96 96V864c0 52.8 43.2 96 96 96h511.9c52.8 0 96-43.2 96-96V289.7c0-52.8-43.2-96-96-96z" fill="#323232" p-id="4210"></path><path d="M895.5 863.7c-17.7 0-32-14.3-32-32V192.2c0-35.3-28.7-64-64-64H225.2c-17.7 0-32-14.3-32-32s14.3-32 32-32h574.3c70.6 0 128 57.4 128 128v639.5c0 17.7-14.3 32-32 32z" fill="#323232" p-id="4211"></path></svg>